<svg width="16" height="16" viewBox="0 0 16 16" fill="none" xmlns="http://www.w3.org/2000/svg">
<g clip-path="url(#clip0_2409_70930)">
<path d="M0 6.88342C0 3.63854 0 2.01611 1.00805 1.00805C2.01611 0 3.63854 0 6.88342 0H9.11658C12.3615 0 13.9839 0 14.9919 1.00805C16 2.01611 16 3.63854 16 6.88342V9.11658C16 12.3615 16 13.9839 14.9919 14.9919C13.9839 16 12.3615 16 9.11658 16H6.88342C3.63854 16 2.01611 16 1.00805 14.9919C0 13.9839 0 12.3615 0 9.11658V6.88342Z" fill="#FFA8CD"/>
<path d="M11.8171 2.89001H9.59843C9.59843 4.71501 8.48187 6.35024 6.78523 7.51824L6.11817 7.98544V2.89001H3.8125V13.11H6.11817V8.04384L9.93197 13.11H12.7452L9.0764 8.26284C10.744 7.05104 11.8316 5.16761 11.8171 2.89001Z" fill="#0B051D"/>
</g>
<defs>
<clipPath id="clip0_2409_70930">
<rect width="16" height="16" fill="white"/>
</clipPath>
</defs>
</svg>
