<svg width="66" height="17" viewBox="0 0 66 17" fill="none" xmlns="http://www.w3.org/2000/svg">
<path d="M59.2918 13.7269C57.7721 13.7269 56.5877 12.4703 56.5877 10.9444C56.5877 9.41839 57.7721 8.16174 59.2918 8.16174C60.8114 8.16174 61.9959 9.41839 61.9959 10.9444C61.9959 12.4703 60.8114 13.7269 59.2918 13.7269ZM58.5317 16.6666C59.828 16.6666 61.4819 16.1729 62.3985 14.2431L62.4876 14.288C62.0855 15.3426 62.0855 15.971 62.0855 16.1281V16.3749H65.3481V5.51375H62.0855V5.76063C62.0855 5.91771 62.0855 6.54603 62.4876 7.6007L62.3985 7.6456C61.4819 5.71573 59.828 5.22204 58.5317 5.22204C55.4255 5.22204 53.2354 7.6905 53.2354 10.9444C53.2354 14.1982 55.4255 16.6666 58.5317 16.6666ZM47.5586 5.22204C46.0835 5.22204 44.9214 5.73818 43.9828 7.6456L43.8934 7.6007C44.2957 6.54603 44.2957 5.91771 44.2957 5.76063V5.51375H41.0327V16.3749H44.385V10.6526C44.385 9.14912 45.2567 8.20658 46.6646 8.20658C48.0726 8.20658 48.7654 9.01443 48.7654 10.6301V16.3749H52.1178V9.46329C52.1178 6.99483 50.1955 5.22204 47.5586 5.22204ZM36.183 7.6456L36.0936 7.6007C36.4958 6.54603 36.4958 5.91771 36.4958 5.76063V5.51375H33.2329V16.3749H36.5853L36.6076 11.1463C36.6076 9.62037 37.4121 8.70027 38.7308 8.70027C39.0883 8.70027 39.3789 8.74517 39.7141 8.83496V5.51375C38.2391 5.19959 36.9205 5.76063 36.183 7.6456ZM25.5225 13.7269C24.0028 13.7269 22.8183 12.4703 22.8183 10.9444C22.8183 9.41839 24.0028 8.16174 25.5225 8.16174C27.0423 8.16174 28.2267 9.41839 28.2267 10.9444C28.2267 12.4703 27.0423 13.7269 25.5225 13.7269ZM24.7627 16.6666C26.0589 16.6666 27.7127 16.1729 28.629 14.2431L28.7184 14.288C28.3161 15.3426 28.3161 15.971 28.3161 16.1281V16.3749H31.5791V5.51375H28.3161V5.76063C28.3161 5.91771 28.3161 6.54603 28.7184 7.6007L28.629 7.6456C27.7127 5.71573 26.0589 5.22204 24.7627 5.22204C21.6561 5.22204 19.466 7.6905 19.466 10.9444C19.466 14.1982 21.6561 16.6666 24.7627 16.6666ZM14.795 16.3749H18.1474V0.666626H14.795V16.3749ZM12.3366 0.666626H8.91721C8.91721 3.4717 7.19636 5.98499 4.58153 7.78023L3.55346 8.49835V0.666626H0V16.3749H3.55346V8.58809L9.43124 16.3749H13.767L8.11266 8.9247C10.6828 7.06217 12.359 4.16731 12.3366 0.666626Z" fill="#0B051D"/>
</svg>
